<svg xmlns="http://www.w3.org/2000/svg" viewBox="0 0 1180 670" font-family="'Segoe UI',system-ui,sans-serif">
<rect width="1180" height="670" fill="#0b1420"/>
<rect x="10" y="10" width="1160" height="650" rx="12" fill="#0e1a26" stroke="#21364a"/>
<text x="28" y="48" font-size="22" font-weight="800" fill="#cfe2f6">WorldForge 2 — Trade Goods Iconography <tspan fill="#3a80c0" font-size="14" font-weight="600">· flat redesign</tspan></text>
<text x="28" y="66" font-size="12" fill="#7e97b0">Custom flat vector pictograms (no emoji) — representative set across all 8 categories; the same style extends to all ~90 goods.</text>
<text x="28" y="86" font-size="14" font-weight="700" fill="#d8b24a" letter-spacing=".5">Staples</text>
<line x1="28" y1="93" x2="1152" y2="93" stroke="#2a3f55" stroke-width="1"/>
<g transform="translate(28,106)">
<rect width="78" height="30" rx="7" fill="#ece3cf" stroke="#c4b48e" stroke-width="1"/>
<g transform="translate(8,5.0)"><rect x="9.2" y="5" width="1.6" height="13" rx=".8" fill="#9c7a28"/><ellipse cx="8.2" cy="7.0" rx="2.0" ry="1.0" fill="#e0b94a" transform="rotate(-39.6 8.2 7.0)"/><ellipse cx="11.8" cy="7.0" rx="2.0" ry="1.0" fill="#e0b94a" transform="rotate(39.6 11.8 7.0)"/><ellipse cx="8.2" cy="9.6" rx="2.0" ry="1.0" fill="#e0b94a" transform="rotate(-39.6 8.2 9.6)"/><ellipse cx="11.8" cy="9.6" rx="2.0" ry="1.0" fill="#e0b94a" transform="rotate(39.6 11.8 9.6)"/><ellipse cx="8.2" cy="12.2" rx="2.0" ry="1.0" fill="#e0b94a" transform="rotate(-39.6 8.2 12.2)"/><ellipse cx="11.8" cy="12.2" rx="2.0" ry="1.0" fill="#e0b94a" transform="rotate(39.6 11.8 12.2)"/><ellipse cx="8.2" cy="14.8" rx="2.0" ry="1.0" fill="#e0b94a" transform="rotate(-39.6 8.2 14.8)"/><ellipse cx="11.8" cy="14.8" rx="2.0" ry="1.0" fill="#e0b94a" transform="rotate(39.6 11.8 14.8)"/></g>
<text x="34" y="19.5" font-size="12.5" font-weight="500" fill="#2a2113">Wheat</text>
</g>
<g transform="translate(114,106)">
<rect width="72" height="30" rx="7" fill="#ece3cf" stroke="#c4b48e" stroke-width="1"/>
<g transform="translate(8,5.0)"><path d="M4,10 a6,5 0 0 0 12,0 Z" fill="#efe6cf" stroke="#c2a86a" stroke-width="1"/><ellipse cx="7.5" cy="7" rx="1.1" ry="0.5" fill="#fff" stroke="#d9c79a" stroke-width=".4"/><ellipse cx="10" cy="6" rx="1.1" ry="0.5" fill="#fff" stroke="#d9c79a" stroke-width=".4"/><ellipse cx="12.5" cy="7" rx="1.1" ry="0.5" fill="#fff" stroke="#d9c79a" stroke-width=".4"/><ellipse cx="9" cy="8.2" rx="1.1" ry="0.5" fill="#fff" stroke="#d9c79a" stroke-width=".4"/></g>
<text x="34" y="19.5" font-size="12.5" font-weight="500" fill="#2a2113">Rice</text>
</g>
<g transform="translate(194,106)">
<rect width="85" height="30" rx="7" fill="#ece3cf" stroke="#c4b48e" stroke-width="1"/>
<g transform="translate(8,5.0)"><rect x="9.2" y="5" width="1.6" height="13" rx=".8" fill="#8a7330"/><ellipse cx="8.2" cy="7.0" rx="2.0" ry="1.0" fill="#c8a85a" transform="rotate(-39.6 8.2 7.0)"/><ellipse cx="11.8" cy="7.0" rx="2.0" ry="1.0" fill="#c8a85a" transform="rotate(39.6 11.8 7.0)"/><ellipse cx="8.2" cy="9.6" rx="2.0" ry="1.0" fill="#c8a85a" transform="rotate(-39.6 8.2 9.6)"/><ellipse cx="11.8" cy="9.6" rx="2.0" ry="1.0" fill="#c8a85a" transform="rotate(39.6 11.8 9.6)"/><ellipse cx="8.2" cy="12.2" rx="2.0" ry="1.0" fill="#c8a85a" transform="rotate(-39.6 8.2 12.2)"/><ellipse cx="11.8" cy="12.2" rx="2.0" ry="1.0" fill="#c8a85a" transform="rotate(39.6 11.8 12.2)"/><ellipse cx="8.2" cy="14.8" rx="2.0" ry="1.0" fill="#c8a85a" transform="rotate(-39.6 8.2 14.8)"/><ellipse cx="11.8" cy="14.8" rx="2.0" ry="1.0" fill="#c8a85a" transform="rotate(39.6 11.8 14.8)"/></g>
<text x="34" y="19.5" font-size="12.5" font-weight="500" fill="#2a2113">Barley</text>
</g>
<g transform="translate(287,106)">
<rect width="85" height="30" rx="7" fill="#ece3cf" stroke="#c4b48e" stroke-width="1"/>
<g transform="translate(8,5.0)"><path d="M10,18 V7" stroke="#9c7a28" stroke-width="1.4"/><circle cx="10" cy="5.5" r="1.1" fill="#dcc070"/><circle cx="8.2" cy="6.6" r="1.1" fill="#dcc070"/><circle cx="11.8" cy="6.6" r="1.1" fill="#dcc070"/><circle cx="8.4" cy="8.6" r="1.1" fill="#dcc070"/><circle cx="11.6" cy="8.6" r="1.1" fill="#dcc070"/><circle cx="9" cy="10.4" r="1.1" fill="#dcc070"/><circle cx="11" cy="10.4" r="1.1" fill="#dcc070"/></g>
<text x="34" y="19.5" font-size="12.5" font-weight="500" fill="#2a2113">Millet</text>
</g>
<g transform="translate(380,106)">
<rect width="78" height="30" rx="7" fill="#ece3cf" stroke="#c4b48e" stroke-width="1"/>
<g transform="translate(8,5.0)"><path d="M10,7 q5,-3 6,1" stroke="#5a7a2e" stroke-width="1.4" fill="none"/><ellipse cx="8" cy="12" rx="1.5" ry="2.4" fill="#9a5a28"/><ellipse cx="10" cy="13.5" rx="1.5" ry="2.4" fill="#9a5a28"/><ellipse cx="12" cy="12" rx="1.5" ry="2.4" fill="#9a5a28"/></g>
<text x="34" y="19.5" font-size="12.5" font-weight="500" fill="#2a2113">Dates</text>
</g>
<g transform="translate(466,106)">
<rect width="78" height="30" rx="7" fill="#ece3cf" stroke="#c4b48e" stroke-width="1"/>
<g transform="translate(8,5.0)"><path d="M10,4 L15,7 V13 L10,16 L5,13 V7 Z" fill="#e0a020" stroke="#b87d12" stroke-width="1"/><path d="M10,8 L12.5,9.5 V12 L10,13.5 L7.5,12 V9.5 Z" fill="#f4cf6a"/></g>
<text x="34" y="19.5" font-size="12.5" font-weight="500" fill="#2a2113">Honey</text>
</g>
<text x="28" y="158" font-size="14" font-weight="700" fill="#d8b24a" letter-spacing=".5">Wine, Oil &amp; Vine</text>
<line x1="28" y1="165" x2="1152" y2="165" stroke="#2a3f55" stroke-width="1"/>
<g transform="translate(28,178)">
<rect width="72" height="30" rx="7" fill="#ece3cf" stroke="#c4b48e" stroke-width="1"/>
<g transform="translate(8,5.0)"><path d="M6.5,5 H13.5 Q12.5,11 10,11 Q7.5,11 6.5,5 Z" fill="#8e2440"/><path d="M7.2,6 H12.8 Q12.4,8.4 10,8.6 Q7.6,8.4 7.2,6 Z" fill="#b03a58"/><rect x="9.3" y="11" width="1.4" height="4" fill="#6b5436"/><rect x="7" y="15" width="6" height="1.4" rx=".7" fill="#6b5436"/></g>
<text x="34" y="19.5" font-size="12.5" font-weight="500" fill="#2a2113">Wine</text>
</g>
<g transform="translate(108,178)">
<rect width="104" height="30" rx="7" fill="#ece3cf" stroke="#c4b48e" stroke-width="1"/>
<g transform="translate(8,5.0)"><path d="M10,4 q3,2 2.5,6 Q12,16 10,16 Q8,16 7.5,10 Q7,6 10,4 Z" fill="#8ea33a"/><ellipse cx="10" cy="11" rx="2" ry="2.6" fill="#aac256"/><rect x="9.2" y="3" width="1.6" height="2.5" fill="#5d6b22"/></g>
<text x="34" y="19.5" font-size="12.5" font-weight="500" fill="#2a2113">Olive Oil</text>
</g>
<g transform="translate(220,178)">
<rect width="85" height="30" rx="7" fill="#ece3cf" stroke="#c4b48e" stroke-width="1"/>
<g transform="translate(8,5.0)"><circle cx="10" cy="10" r="6" fill="#f4a32a"/><path d="M10,10 L16.2,10.0" stroke="#fff" stroke-width=".7" opacity=".7"/><path d="M10,10 L14.38580726883664,14.382316122853268" stroke="#fff" stroke-width=".7" opacity=".7"/><path d="M10,10 L10.004937225606547,16.199998034177376" stroke="#fff" stroke-width=".7" opacity=".7"/><path d="M10,10 L5.621177802115968,14.389295633620279" stroke="#fff" stroke-width=".7" opacity=".7"/><path d="M10,10 L3.800007863289255,10.009874448082218" stroke="#fff" stroke-width=".7" opacity=".7"/><path d="M10,10 L5.607218785007909,5.624674503855444" stroke="#fff" stroke-width=".7" opacity=".7"/><path d="M10,10 L9.985188335703855,3.800017692396149" stroke="#fff" stroke-width=".7" opacity=".7"/><path d="M10,10 L14.371826019852222,5.603735989258256" stroke="#fff" stroke-width=".7" opacity=".7"/><circle cx="10" cy="10" r="1.2" fill="#fff"/></g>
<text x="34" y="19.5" font-size="12.5" font-weight="500" fill="#2a2113">Citrus</text>
</g>
<g transform="translate(313,178)">
<rect width="72" height="30" rx="7" fill="#ece3cf" stroke="#c4b48e" stroke-width="1"/>
<g transform="translate(8,5.0)"><rect x="6" y="7" width="7" height="9" rx="1" fill="#e0a02a"/><rect x="6" y="6" width="7" height="2.4" rx="1" fill="#fff3d6"/><circle cx="7.5" cy="6" r="1.6" fill="#fff7e6"/><circle cx="10" cy="5.4" r="1.8" fill="#fff7e6"/><circle cx="12" cy="6" r="1.6" fill="#fff7e6"/><rect x="13" y="8.5" width="3" height="5" rx="1.5" fill="none" stroke="#caa15a" stroke-width="1.3"/></g>
<text x="34" y="19.5" font-size="12.5" font-weight="500" fill="#2a2113">Beer</text>
</g>
<g transform="translate(393,178)">
<rect width="72" height="30" rx="7" fill="#ece3cf" stroke="#c4b48e" stroke-width="1"/>
<g transform="translate(8,5.0)"><path d="M6.5,5 H13.5 L11.5,13 H8.5 Z" fill="#e0a020"/><rect x="9.3" y="13" width="1.4" height="2.6" fill="#6b5436"/><rect x="7.5" y="15.5" width="5" height="1.3" rx=".6" fill="#6b5436"/></g>
<text x="34" y="19.5" font-size="12.5" font-weight="500" fill="#2a2113">Mead</text>
</g>
<text x="28" y="230" font-size="14" font-weight="700" fill="#d8b24a" letter-spacing=".5">Cash Crops</text>
<line x1="28" y1="237" x2="1152" y2="237" stroke="#2a3f55" stroke-width="1"/>
<g transform="translate(28,250)">
<rect width="78" height="30" rx="7" fill="#ece3cf" stroke="#c4b48e" stroke-width="1"/>
<g transform="translate(8,5.0)"><rect x="5" y="9" width="6" height="6" rx="1" fill="#f2ead6" stroke="#cdbf9a" stroke-width="1"/><rect x="10" y="6" width="6" height="6" rx="1" fill="#fbf6e8" stroke="#cdbf9a" stroke-width="1"/></g>
<text x="34" y="19.5" font-size="12.5" font-weight="500" fill="#2a2113">Sugar</text>
</g>
<g transform="translate(114,250)">
<rect width="91" height="30" rx="7" fill="#ece3cf" stroke="#c4b48e" stroke-width="1"/>
<g transform="translate(8,5.0)"><path d="M10,16 Q4,12 5,5 Q11,6 11,11 Q15,7 15,11 Q14,15 10,16 Z" fill="#8a6a36"/><path d="M10,16 Q9,10 6.5,7" stroke="#6b4f24" stroke-width=".8" fill="none"/></g>
<text x="34" y="19.5" font-size="12.5" font-weight="500" fill="#2a2113">Tobacco</text>
</g>
<g transform="translate(213,250)">
<rect width="85" height="30" rx="7" fill="#ece3cf" stroke="#c4b48e" stroke-width="1"/>
<g transform="translate(8,5.0)"><g transform="rotate(20 10 10)"><ellipse cx="8.4" cy="10" rx="2.4" ry="3.4" fill="#6b4226"/><path d="M8.4,6.8 Q9.6,10 8.4,13.2" stroke="#3f2614" stroke-width=".8" fill="none"/></g><g transform="rotate(20 10 10)"><ellipse cx="11.6" cy="10" rx="2.4" ry="3.4" fill="#6b4226"/><path d="M11.6,6.8 Q12.799999999999999,10 11.6,13.2" stroke="#3f2614" stroke-width=".8" fill="none"/></g></g>
<text x="34" y="19.5" font-size="12.5" font-weight="500" fill="#2a2113">Coffee</text>
</g>
<g transform="translate(306,250)">
<rect width="65" height="30" rx="7" fill="#ece3cf" stroke="#c4b48e" stroke-width="1"/>
<g transform="translate(8,5.0)"><path d="M5,12 Q5,5 11,5 Q9,9 16,9 Q14,15 9,14 Q6,14 5,12 Z" fill="#5fae6f"/><path d="M7,12 Q10,9 14,9" stroke="#357a44" stroke-width=".9" fill="none"/></g>
<text x="34" y="19.5" font-size="12.5" font-weight="500" fill="#2a2113">Tea</text>
</g>
<g transform="translate(379,250)">
<rect width="78" height="30" rx="7" fill="#ece3cf" stroke="#c4b48e" stroke-width="1"/>
<g transform="translate(8,5.0)"><path d="M10,4 Q14,7 13.5,12 Q13,16 10,16 Q7,16 6.5,12 Q6,7 10,4 Z" fill="#7a4a26"/><path d="M8.4,5 V15 M11.6,5 V15" stroke="#5a3418" stroke-width=".8"/></g>
<text x="34" y="19.5" font-size="12.5" font-weight="500" fill="#2a2113">Cacao</text>
</g>
<g transform="translate(465,250)">
<rect width="85" height="30" rx="7" fill="#ece3cf" stroke="#c4b48e" stroke-width="1"/>
<g transform="translate(8,5.0)"><path d="M10,4 Q14,9 14,12 A4,4 0 1 1 6,12 Q6,9 10,4 Z" fill="#3a4fb0"/><path d="M8.4,12 a1.6,1.6 0 0 0 3.2,0" stroke="#9fb0e6" stroke-width=".9" fill="none"/></g>
<text x="34" y="19.5" font-size="12.5" font-weight="500" fill="#2a2113">Indigo</text>
</g>
<text x="28" y="302" font-size="14" font-weight="700" fill="#d8b24a" letter-spacing=".5">Spices &amp; Aromatics</text>
<line x1="28" y1="309" x2="1152" y2="309" stroke="#2a3f55" stroke-width="1"/>
<g transform="translate(28,322)">
<rect width="85" height="30" rx="7" fill="#ece3cf" stroke="#c4b48e" stroke-width="1"/>
<g transform="translate(8,5.0)"><path d="M10,4 Q12,4 11.5,6 Q15,8 13.5,13 Q12,17 10,16 Q8,17 6.5,13 Q5,8 8.5,6 Q8,4 10,4 Z" fill="#d2622a"/><rect x="9.3" y="3" width="1.4" height="2.2" fill="#5a7a2e"/></g>
<text x="34" y="19.5" font-size="12.5" font-weight="500" fill="#2a2113">Spices</text>
</g>
<g transform="translate(121,322)">
<rect width="85" height="30" rx="7" fill="#ece3cf" stroke="#c4b48e" stroke-width="1"/>
<g transform="translate(8,5.0)"><g transform="rotate(-18 10 10)"><rect x="9.4" y="8" width="1.2" height="6" rx=".6" fill="#7a3b1e"/><circle cx="10" cy="7.6" r="1.6" fill="#9a5a30"/></g><g transform="rotate(18 10 10)"><rect x="9.4" y="8" width="1.2" height="6" rx=".6" fill="#7a3b1e"/><circle cx="10" cy="7.6" r="1.6" fill="#9a5a30"/></g></g>
<text x="34" y="19.5" font-size="12.5" font-weight="500" fill="#2a2113">Cloves</text>
</g>
<g transform="translate(214,322)">
<rect width="98" height="30" rx="7" fill="#ece3cf" stroke="#c4b48e" stroke-width="1"/>
<g transform="translate(8,5.0)"><rect x="6.5" y="5" width="3" height="11" rx="1.4" fill="#a9603a"/><rect x="10.5" y="5" width="3" height="11" rx="1.4" fill="#94502e"/><ellipse cx="8" cy="5" rx="1.5" ry=".7" fill="#c98a5a"/><ellipse cx="12" cy="5" rx="1.5" ry=".7" fill="#b97a4a"/></g>
<text x="34" y="19.5" font-size="12.5" font-weight="500" fill="#2a2113">Cinnamon</text>
</g>
<g transform="translate(320,322)">
<rect width="91" height="30" rx="7" fill="#ece3cf" stroke="#c4b48e" stroke-width="1"/>
<g transform="translate(8,5.0)"><path d="M10,15 Q8.0,9 7.0,5" stroke="#d23a2a" stroke-width="1.5" fill="none" stroke-linecap="round"/><path d="M10,15 Q9.3,9 8.5,5" stroke="#d23a2a" stroke-width="1.5" fill="none" stroke-linecap="round"/><path d="M10,15 Q10.6,9 10.0,5" stroke="#d23a2a" stroke-width="1.5" fill="none" stroke-linecap="round"/><path d="M10,15 Q11.9,9 11.5,5" stroke="#d23a2a" stroke-width="1.5" fill="none" stroke-linecap="round"/><circle cx="10" cy="15.5" r="1.2" fill="#e0a92a"/></g>
<text x="34" y="19.5" font-size="12.5" font-weight="500" fill="#2a2113">Saffron</text>
</g>
<g transform="translate(419,322)">
<rect width="124" height="30" rx="7" fill="#ece3cf" stroke="#c4b48e" stroke-width="1"/>
<g transform="translate(8,5.0)"><path d="M7,16 Q5,11 7,7 M10,16 Q12,11 10,7 M9,7 Q9,4 11,3" stroke="#b0a0c0" stroke-width="1.3" fill="none" opacity=".8"/><ellipse cx="8.5" cy="16" rx="2.4" ry="1.4" fill="#c79a4b"/></g>
<text x="34" y="19.5" font-size="12.5" font-weight="500" fill="#2a2113">Frankincense</text>
</g>
<text x="28" y="374" font-size="14" font-weight="700" fill="#d8b24a" letter-spacing=".5">Textiles &amp; Animal</text>
<line x1="28" y1="381" x2="1152" y2="381" stroke="#2a3f55" stroke-width="1"/>
<g transform="translate(28,394)">
<rect width="72" height="30" rx="7" fill="#ece3cf" stroke="#c4b48e" stroke-width="1"/>
<g transform="translate(8,5.0)"><rect x="8.5" y="5" width="3" height="10" fill="#b0508f"/><rect x="6.5" y="5" width="7" height="1.8" rx=".9" fill="#d97fb0"/><rect x="6.5" y="13.2" width="7" height="1.8" rx=".9" fill="#d97fb0"/></g>
<text x="34" y="19.5" font-size="12.5" font-weight="500" fill="#2a2113">Silk</text>
</g>
<g transform="translate(108,394)">
<rect width="85" height="30" rx="7" fill="#ece3cf" stroke="#c4b48e" stroke-width="1"/>
<g transform="translate(8,5.0)"><circle cx="7.5" cy="9" r="2.6" fill="#fff"/><circle cx="12" cy="8.5" r="2.6" fill="#fff"/><circle cx="9.7" cy="11.5" r="3" fill="#fbfbf4"/><path d="M6,12 L8,15 M10,13 L10,16 M13,12 L12,15" stroke="#9a8a5a" stroke-width="1"/></g>
<text x="34" y="19.5" font-size="12.5" font-weight="500" fill="#2a2113">Cotton</text>
</g>
<g transform="translate(201,394)">
<rect width="117" height="30" rx="7" fill="#ece3cf" stroke="#c4b48e" stroke-width="1"/>
<g transform="translate(8,5.0)"><ellipse cx="10" cy="11" rx="6" ry="4.5" fill="#ece6d8"/><circle cx="6" cy="10" r="1.8" fill="#f6f1e6"/><circle cx="8" cy="8.5" r="1.8" fill="#f6f1e6"/><circle cx="10.5" cy="8" r="1.8" fill="#f6f1e6"/><circle cx="13" cy="9" r="1.8" fill="#f6f1e6"/><circle cx="14" cy="11" r="1.8" fill="#f6f1e6"/><circle cx="8" cy="13" r="1.8" fill="#f6f1e6"/><circle cx="12" cy="13" r="1.8" fill="#f6f1e6"/></g>
<text x="34" y="19.5" font-size="12.5" font-weight="500" fill="#2a2113">Fleece Wool</text>
</g>
<g transform="translate(326,394)">
<rect width="72" height="30" rx="7" fill="#ece3cf" stroke="#c4b48e" stroke-width="1"/>
<g transform="translate(8,5.0)"><path d="M10,4 L13,6 L15,5 L13.5,9 L13,15 H7 L6.5,9 L5,5 L7,6 Z" fill="#a9763d"/><circle cx="10" cy="10" r="1.4" fill="#6b4a22"/></g>
<text x="34" y="19.5" font-size="12.5" font-weight="500" fill="#2a2113">Furs</text>
</g>
<g transform="translate(406,394)">
<rect width="85" height="30" rx="7" fill="#ece3cf" stroke="#c4b48e" stroke-width="1"/>
<g transform="translate(8,5.0)"><path d="M6,16 V11 Q6,8 9,8 L11,8 Q12,5 14,5 Q13,7 13.5,8.5 Q15,10 14.5,12 L14,16 H12.5 V12 H9 V16 Z" fill="#9a5a2a"/><path d="M13.6,6 L15,4.5" stroke="#6b3c18" stroke-width="1"/></g>
<text x="34" y="19.5" font-size="12.5" font-weight="500" fill="#2a2113">Horses</text>
</g>
<g transform="translate(499,394)">
<rect width="78" height="30" rx="7" fill="#ece3cf" stroke="#c4b48e" stroke-width="1"/>
<g transform="translate(8,5.0)"><path d="M6,6 Q12,7 13,16 Q10,15 8.5,11 Q7,8 6,6 Z" fill="#efe6d0" stroke="#cdbf9a" stroke-width=".8"/></g>
<text x="34" y="19.5" font-size="12.5" font-weight="500" fill="#2a2113">Ivory</text>
</g>
<g transform="translate(585,394)">
<rect width="78" height="30" rx="7" fill="#ece3cf" stroke="#c4b48e" stroke-width="1"/>
<g transform="translate(8,5.0)"><path d="M5,8 L15,6 L15,13 L5,15 Z" fill="#d8c8b0" stroke="#b6a584" stroke-width="1"/><path d="M5,11 L15,9.5" stroke="#b6a584" stroke-width=".7"/></g>
<text x="34" y="19.5" font-size="12.5" font-weight="500" fill="#2a2113">Cloth</text>
</g>
<text x="28" y="446" font-size="14" font-weight="700" fill="#d8b24a" letter-spacing=".5">Forestry &amp; Craft</text>
<line x1="28" y1="453" x2="1152" y2="453" stroke="#2a3f55" stroke-width="1"/>
<g transform="translate(28,466)">
<rect width="85" height="30" rx="7" fill="#ece3cf" stroke="#c4b48e" stroke-width="1"/>
<g transform="translate(8,5.0)"><g transform="translate(8,8)"><ellipse cx="0" cy="0" rx="2.6" ry="3.4" transform="rotate(40)" fill="#8a5a30"/><ellipse cx="1.4" cy="-1.4" rx="1" ry="1.4" transform="rotate(40)" fill="#b98a55"/></g><g transform="translate(12,9)"><ellipse cx="0" cy="0" rx="2.6" ry="3.4" transform="rotate(40)" fill="#8a5a30"/><ellipse cx="1.4" cy="-1.4" rx="1" ry="1.4" transform="rotate(40)" fill="#b98a55"/></g><g transform="translate(10,12.5)"><ellipse cx="0" cy="0" rx="2.6" ry="3.4" transform="rotate(40)" fill="#8a5a30"/><ellipse cx="1.4" cy="-1.4" rx="1" ry="1.4" transform="rotate(40)" fill="#b98a55"/></g></g>
<text x="34" y="19.5" font-size="12.5" font-weight="500" fill="#2a2113">Timber</text>
</g>
<g transform="translate(121,466)">
<rect width="78" height="30" rx="7" fill="#ece3cf" stroke="#c4b48e" stroke-width="1"/>
<g transform="translate(8,5.0)"><path d="M6,4 H13 L15,6 V16 H6 Z" fill="#efe6c8" stroke="#c9bd92" stroke-width="1"/><path d="M13,4 V6 H15" fill="#d9cda0"/><path d="M8,8 H12 M8,10 H12.5 M8,12 H11" stroke="#b3a472" stroke-width=".7"/></g>
<text x="34" y="19.5" font-size="12.5" font-weight="500" fill="#2a2113">Paper</text>
</g>
<g transform="translate(207,466)">
<rect width="98" height="30" rx="7" fill="#ece3cf" stroke="#c4b48e" stroke-width="1"/>
<g transform="translate(8,5.0)"><path d="M7,7 Q6,5 10,5 Q14,5 13,7 Q16,11 13,15 H7 Q4,11 7,7 Z" fill="#3f6bb0"/><path d="M6.5,9 H13.5" stroke="#9fc0e8" stroke-width="1"/></g>
<text x="34" y="19.5" font-size="12.5" font-weight="500" fill="#2a2113">Ceramics</text>
</g>
<g transform="translate(313,466)">
<rect width="104" height="30" rx="7" fill="#ece3cf" stroke="#c4b48e" stroke-width="1"/>
<g transform="translate(8,5.0)"><path d="M7,5 H13 Q12.4,10 10,10.5 Q7.6,10 7,5 Z" fill="#9fd8d0" opacity=".9"/><rect x="9.3" y="10.5" width="1.4" height="4" fill="#bfe0da"/><rect x="7.5" y="14.5" width="5" height="1.4" rx=".7" fill="#bfe0da"/></g>
<text x="34" y="19.5" font-size="12.5" font-weight="500" fill="#2a2113">Glassware</text>
</g>
<g transform="translate(425,466)">
<rect width="78" height="30" rx="7" fill="#ece3cf" stroke="#c4b48e" stroke-width="1"/>
<g transform="translate(8,5.0)"><rect x="5" y="6" width="10" height="3" rx=".6" fill="#9b4f2f"/><rect x="5.5" y="9" width="10" height="3" rx=".6" fill="#3a6b8a"/><rect x="5" y="12" width="9.5" height="3" rx=".6" fill="#5a7a3a"/></g>
<text x="34" y="19.5" font-size="12.5" font-weight="500" fill="#2a2113">Books</text>
</g>
<text x="28" y="518" font-size="14" font-weight="700" fill="#d8b24a" letter-spacing=".5">Minerals &amp; Metals</text>
<line x1="28" y1="525" x2="1152" y2="525" stroke="#2a3f55" stroke-width="1"/>
<g transform="translate(28,538)">
<rect width="72" height="30" rx="7" fill="#ece3cf" stroke="#c4b48e" stroke-width="1"/>
<g transform="translate(8,5.0)"><path d="M10,5 L15,15 H5 Z" fill="#eef0f2" stroke="#c2c8cf" stroke-width="1"/><path d="M10,9 L12.5,15 H7.5 Z" fill="#fff"/></g>
<text x="34" y="19.5" font-size="12.5" font-weight="500" fill="#2a2113">Salt</text>
</g>
<g transform="translate(108,538)">
<rect width="72" height="30" rx="7" fill="#ece3cf" stroke="#c4b48e" stroke-width="1"/>
<g transform="translate(8,5.0)"><path d="M5,12 L7,9 H13 L15,12 L13,15 H7 Z" fill="#8a9099"/><path d="M7,9 H13 L12,11 H8 Z" fill="#aab0b8"/></g>
<text x="34" y="19.5" font-size="12.5" font-weight="500" fill="#2a2113">Iron</text>
</g>
<g transform="translate(188,538)">
<rect width="85" height="30" rx="7" fill="#ece3cf" stroke="#c4b48e" stroke-width="1"/>
<g transform="translate(8,5.0)"><path d="M5,12 L7,9 H13 L15,12 L13,15 H7 Z" fill="#b06a3a"/><path d="M7,9 H13 L12,11 H8 Z" fill="#cf8a55"/></g>
<text x="34" y="19.5" font-size="12.5" font-weight="500" fill="#2a2113">Copper</text>
</g>
<g transform="translate(281,538)">
<rect width="72" height="30" rx="7" fill="#ece3cf" stroke="#c4b48e" stroke-width="1"/>
<g transform="translate(8,5.0)"><ellipse cx="8" cy="13" rx="4" ry="1.6" fill="#caa227"/><ellipse cx="8" cy="11.5" rx="4" ry="1.6" fill="#e0c04a"/><ellipse cx="11.5" cy="9.5" rx="4" ry="1.6" fill="#d4af37"/><ellipse cx="11.5" cy="8" rx="4" ry="1.6" fill="#f0d77a"/></g>
<text x="34" y="19.5" font-size="12.5" font-weight="500" fill="#2a2113">Gold</text>
</g>
<g transform="translate(361,538)">
<rect width="85" height="30" rx="7" fill="#ece3cf" stroke="#c4b48e" stroke-width="1"/>
<g transform="translate(8,5.0)"><path d="M5,12 L7,9 H13 L15,12 L13,15 H7 Z" fill="#aeb4bc"/><path d="M7,9 H13 L12,11 H8 Z" fill="#d2d6dc"/></g>
<text x="34" y="19.5" font-size="12.5" font-weight="500" fill="#2a2113">Silver</text>
</g>
<g transform="translate(454,538)">
<rect width="104" height="30" rx="7" fill="#ece3cf" stroke="#c4b48e" stroke-width="1"/>
<g transform="translate(8,5.0)"><path d="M5,9 L7.5,6 H12.5 L15,9 L10,16 Z" fill="#37c0d4"/><path d="M5,9 H15 M7.5,6 L10,9 L12.5,6 M5,9 L10,16 L15,9" stroke="#bff0f6" stroke-width=".7" fill="none"/></g>
<text x="34" y="19.5" font-size="12.5" font-weight="500" fill="#2a2113">Gemstones</text>
</g>
<g transform="translate(566,538)">
<rect width="85" height="30" rx="7" fill="#ece3cf" stroke="#c4b48e" stroke-width="1"/>
<g transform="translate(8,5.0)"><rect x="7" y="6" width="6" height="8" fill="#eceae4"/><rect x="5.5" y="4.5" width="9" height="2" fill="#dad7cf"/><rect x="5.5" y="14" width="9" height="2" fill="#dad7cf"/><path d="M9,6 V14 M11,6 V14" stroke="#cbc8c0" stroke-width=".7"/></g>
<text x="34" y="19.5" font-size="12.5" font-weight="500" fill="#2a2113">Marble</text>
</g>
<text x="28" y="590" font-size="14" font-weight="700" fill="#d8b24a" letter-spacing=".5">Marine</text>
<line x1="28" y1="597" x2="1152" y2="597" stroke="#2a3f55" stroke-width="1"/>
<g transform="translate(28,610)">
<rect width="104" height="30" rx="7" fill="#ece3cf" stroke="#c4b48e" stroke-width="1"/>
<g transform="translate(8,5.0)"><ellipse cx="9" cy="10" rx="5" ry="2.8" fill="#6fa0c0"/><path d="M14,10 L17,7 V13 Z" fill="#6fa0c0"/><circle cx="6.5" cy="9.4" r=".8" fill="#fff"/></g>
<text x="34" y="19.5" font-size="12.5" font-weight="500" fill="#2a2113">Stockfish</text>
</g>
<g transform="translate(140,610)">
<rect width="91" height="30" rx="7" fill="#ece3cf" stroke="#c4b48e" stroke-width="1"/>
<g transform="translate(8,5.0)"><ellipse cx="9" cy="10" rx="5" ry="2.4" fill="#b8c4cc"/><path d="M14,10 L17,7.5 V12.5 Z" fill="#9aa8b2"/><circle cx="6.5" cy="9.5" r=".7" fill="#3a4a55"/></g>
<text x="34" y="19.5" font-size="12.5" font-weight="500" fill="#2a2113">Herring</text>
</g>
<g transform="translate(239,610)">
<rect width="85" height="30" rx="7" fill="#ece3cf" stroke="#c4b48e" stroke-width="1"/>
<g transform="translate(8,5.0)"><path d="M4,8 Q10,4 16,8 Q10,11 4,8 Z" fill="#e6d6b0"/><path d="M4,8 Q10,16 16,8" fill="#f2ead6" stroke="#cdbf9a" stroke-width=".8"/><circle cx="10" cy="10.5" r="2" fill="#fff"/><circle cx="9.3" cy="9.8" r=".6" fill="#fff" opacity=".9"/></g>
<text x="34" y="19.5" font-size="12.5" font-weight="500" fill="#2a2113">Pearls</text>
</g>
<g transform="translate(332,610)">
<rect width="91" height="30" rx="7" fill="#ece3cf" stroke="#c4b48e" stroke-width="1"/>
<g transform="translate(8,5.0)"><path d="M4,11 Q7,6 13,8 Q16,9 15,12 Q12,15 7,13 Q5,12 4,11 Z" fill="#4a6a86"/><path d="M13,8 Q15,5 16,5 Q15,7 15,9 Z" fill="#4a6a86"/><circle cx="6" cy="10.2" r=".7" fill="#fff"/></g>
<text x="34" y="19.5" font-size="12.5" font-weight="500" fill="#2a2113">Whaling</text>
</g>
<g transform="translate(431,610)">
<rect width="78" height="30" rx="7" fill="#ece3cf" stroke="#c4b48e" stroke-width="1"/>
<g transform="translate(8,5.0)"><path d="M10,16 V11 M10,12 L7,8 M10,12 L13,8 M7,9 L5.5,6 M7,9 L8.5,6 M13,9 L11.5,6 M13,9 L14.5,6" stroke="#ff6f61" stroke-width="1.7" fill="none" stroke-linecap="round" stroke-linejoin="round"/></g>
<text x="34" y="19.5" font-size="12.5" font-weight="500" fill="#2a2113">Coral</text>
</g>
<g transform="translate(517,610)">
<rect width="78" height="30" rx="7" fill="#ece3cf" stroke="#c4b48e" stroke-width="1"/>
<g transform="translate(8,5.0)"><path d="M10,4 Q14,9 13.5,12 A3.5,3.5 0 1 1 6.5,12 Q6,9 10,4 Z" fill="#e0962a"/><circle cx="9" cy="11.5" r="1.3" fill="#f4c062" opacity=".8"/></g>
<text x="34" y="19.5" font-size="12.5" font-weight="500" fill="#2a2113">Amber</text>
</g>
</svg>