<svg xmlns="http://www.w3.org/2000/svg" viewBox="0 0 128 220" width="128" height="220"><polygon points="14,160 64,185 64,139 14,114" fill="#948a76"/><polygon points="114,160 64,185 64,139 114,114" fill="#b9ad94"/><polygon points="64,71 64,89 14,114" fill="#7f452d"/><polygon points="64,71 64,89 114,114" fill="#9e5639"/><polygon points="64,71 14,114 64,139" fill="#904f34"/><polygon points="64,71 114,114 64,139" fill="#b76442"/><polygon points="73.9,155.8 79.1,154.4 79.1,147.8 73.9,149.2" fill="#33465a"/><polygon points="86.4,149.5 91.6,148.1 91.6,141.5 86.4,142.9" fill="#33465a"/><polygon points="98.9,143.3 104.1,141.9 104.1,135.3 98.9,136.7" fill="#33465a"/><polygon points="82.5,170.5 95.5,166.9 95.5,152.5 82.5,156.1" fill="#33241a"/><polygon points="52,160 64,167 64,71 52,64" fill="#99907b"/><polygon points="76,160 64,167 64,71 76,64" fill="#c0b49a"/><circle cx="70" cy="52" r="3.4" fill="#e8ddc4"/><circle cx="70" cy="52" r="3.4" fill="none" stroke="#33241a" stroke-width="0.9"/><polygon points="52,64 64,64 76,64 64,35" fill="#a75b3c"/></svg>
